<?xml version="1.0" standalone="no"?>
<!DOCTYPE svg PUBLIC "-//W3C//DTD SVG 20010904//EN"
 "http://www.w3.org/TR/2001/REC-SVG-20010904/DTD/svg10.dtd">
<svg version="1.0" xmlns="http://www.w3.org/2000/svg"
 width="225.000000pt" height="225.000000pt" viewBox="0 0 225.000000 225.000000"
 preserveAspectRatio="xMidYMid meet">

<g transform="translate(0.000000,225.000000) scale(0.100000,-0.100000)"
fill="#000000" stroke="none">
<path d="M1083 2070 c-302 -34 -575 -170 -738 -367 -60 -72 -126 -198 -144
-274 -16 -67 -26 -192 -15 -188 29 13 123 64 145 80 20 14 28 30 33 68 12 92
69 186 175 291 135 133 310 227 493 267 99 20 321 13 435 -16 420 -105 674
-389 626 -701 -13 -80 -71 -213 -128 -290 -68 -93 -80 -174 -46 -332 10 -50
14 -88 9 -88 -6 0 -69 32 -141 70 -72 39 -138 70 -148 70 -14 0 -108 -17 -195
-35 -17 -4 -58 -55 -108 -133 -11 -18 62 -10 178 19 l79 20 71 -30 c39 -17
155 -66 259 -110 103 -43 187 -78 187 -76 0 2 -8 23 -18 47 -39 90 -54 182
-50 301 3 99 6 117 29 157 15 25 47 81 73 125 98 168 122 342 73 511 -85 293
-389 536 -751 598 -106 19 -293 27 -383 16z"/>
<path d="M508 1335 c-217 -49 -393 -179 -469 -347 -21 -46 -24 -68 -24 -169 0
-127 -8 -104 103 -313 21 -39 26 -62 25 -115 0 -57 -19 -153 -39 -206 -8 -19
-8 -19 194 67 l143 61 77 -16 c174 -35 298 -29 457 24 177 59 305 165 373 306
35 75 37 83 37 183 0 101 -1 108 -38 184 -71 149 -227 271 -417 326 -99 29
-323 37 -422 15z"/>
</g>
</svg>
